<?xml version="1.0" encoding="UTF-8" standalone="no"?>
<svg
   xmlns:dc="http://purl.org/dc/elements/1.1/"
   xmlns:cc="http://creativecommons.org/ns#"
   xmlns:rdf="http://www.w3.org/1999/02/22-rdf-syntax-ns#"
   xmlns:svg="http://www.w3.org/2000/svg"
   xmlns="http://www.w3.org/2000/svg"
   xmlns:sodipodi="http://sodipodi.sourceforge.net/DTD/sodipodi-0.dtd"
   xmlns:inkscape="http://www.inkscape.org/namespaces/inkscape"
   width="108"
   height="25.810949"
   viewBox="0 0 108 25.810949"
   version="1.1"
   id="svg3829"
   sodipodi:docname="earnest.svg"
   inkscape:version="0.92.2 5c3e80d, 2017-08-06">
  <metadata
     id="metadata3833">
    <rdf:RDF>
      <cc:Work
         rdf:about="">
        <dc:format>image/svg+xml</dc:format>
        <dc:type
           rdf:resource="http://purl.org/dc/dcmitype/StillImage" />
        <dc:title>logo-green</dc:title>
      </cc:Work>
    </rdf:RDF>
  </metadata>
  <sodipodi:namedview
     pagecolor="#ffffff"
     bordercolor="#666666"
     borderopacity="1"
     objecttolerance="10"
     gridtolerance="10"
     guidetolerance="10"
     inkscape:pageopacity="0"
     inkscape:pageshadow="2"
     inkscape:window-width="1440"
     inkscape:window-height="855"
     id="namedview3831"
     showgrid="false"
     fit-margin-top="0"
     fit-margin-left="0"
     fit-margin-right="0"
     fit-margin-bottom="0"
     inkscape:zoom="10.03125"
     inkscape:cx="54"
     inkscape:cy="-2.3497614"
     inkscape:window-x="0"
     inkscape:window-y="1"
     inkscape:window-maximized="1"
     inkscape:current-layer="svg3829" />
  <!-- Generator: Sketch 3.7.2 (28276) - http://www.bohemiancoding.com/sketch -->
  <title
     id="title3786">logo-green</title>
  <desc
     id="desc3788">Created with Sketch.</desc>
  <defs
     id="defs3790" />
  <g
     id="g3824"
     style="fill:#1bb580;fill-rule:evenodd;stroke:none;stroke-width:1"
     transform="translate(0,-0.96871496)">
    <g
       id="g3822">
      <g
         id="g3820">
        <g
           id="g3818">
          <g
             id="g3816">
            <path
               d="m 4.3692515,15.350237 c 0.1473129,-1.90461 1.6886871,-3.956186 4.370135,-3.956186 2.9367605,0 4.3330305,1.867813 4.4056935,3.956186 z M 8.7022822,7.8410847 C 4.1859386,7.8410847 0,11.577153 0,17.219152 c 0,6.043678 4.2961472,9.560509 9.1426749,9.560509 4.2961471,0 7.1233621,-2.527729 8.0785761,-5.640898 l -3.599116,-1.136509 c -0.587485,1.758966 -1.908883,3.114492 -4.4794601,3.114492 -2.6439019,0 -4.7734234,-1.941627 -4.883632,-4.652238 H 17.330797 c 0.03622,-0.07315 0.110209,-0.660135 0.110209,-1.355305 0,-5.642 -3.231165,-9.2681183 -8.7387238,-9.2681183 z"
               id="path3804"
               inkscape:connector-curvature="0" />
            <path
               d="m 29.703313,18.82983 c 0,3.480475 -2.055534,4.616763 -4.443239,4.616763 -1.688688,0 -2.607019,-1.099271 -2.607019,-2.30783 0,-1.466577 1.065644,-2.198763 2.387043,-2.418882 l 4.663215,-0.69539 z m 4.186601,-4.322169 c 0,-3.553627 -2.093301,-6.6665763 -7.600859,-6.6665763 -4.406135,0 -7.196466,2.7476273 -7.527975,5.8244403 l 3.891975,0.878933 c 0.184417,-1.795102 1.431828,-3.22356 3.672442,-3.22356 2.349055,0 3.377816,1.20856 3.377816,2.71061 0,0.622238 -0.294626,1.136068 -1.32162,1.282373 l -4.589889,0.69539 c -3.047632,0.440017 -5.397571,2.198102 -5.397571,5.385746 0,2.820339 2.313718,5.384644 6.05838,5.384644 2.90054,0 4.663215,-1.464814 5.508,-2.819898 0,1.427576 0.146651,2.159762 0.183755,2.270593 h 3.965301 c -0.03644,-0.183102 -0.219755,-1.246017 -0.219755,-2.857576 z"
               id="path3806"
               inkscape:connector-curvature="0" />
            <path
               d="M 40.424245,11.247966 V 8.3903898 H 36.274748 V 26.230356 h 4.259927 v -8.498254 c 0,-3.335051 1.504932,-5.239 4.810086,-5.239 0.441055,0 0.91811,0.03636 1.394944,0.110169 V 8.2811017 C 46.556172,8.2443051 46.115117,8.1704915 45.60162,8.1704915 c -2.349497,0 -4.333031,1.1351865 -5.177375,3.0774745"
               id="path3808"
               inkscape:connector-curvature="0" />
            <path
               d="m 57.717276,7.8778814 c -1.982429,0 -4.112393,0.8423559 -5.287362,2.8939326 V 8.3903898 H 48.280196 V 26.230356 h 4.259927 V 15.937 c 0,-2.344407 1.284515,-4.213102 3.708221,-4.213102 2.679239,0 3.671779,1.757644 3.671779,3.956187 v 10.550271 h 4.258822 V 14.947678 c 0,-3.91983 -2.092638,-7.0697966 -6.461669,-7.0697966"
               id="path3810"
               inkscape:connector-curvature="0" />
            <path
               d="m 70.089571,15.350237 c 0.146208,-1.90461 1.688245,-3.956186 4.368368,-3.956186 2.938085,0 4.33303,1.867813 4.407239,3.956186 z M 74.42216,7.8410847 c -4.517669,0 -8.702724,3.7360683 -8.702724,9.3780673 0,6.043678 4.295926,9.560509 9.144,9.560509 4.295484,0 7.121816,-2.527729 8.076809,-5.640898 L 79.34135,20.002254 c -0.586601,1.758966 -1.908663,3.114492 -4.477914,3.114492 -2.644344,0 -4.773865,-1.941627 -4.884295,-4.652238 h 13.071092 c 0.03666,-0.07315 0.11043,-0.660135 0.11043,-1.355305 0,-5.642 -3.230945,-9.2681183 -8.738503,-9.2681183 z"
               id="path3812"
               inkscape:connector-curvature="0" />
            <path
               d="m 108,13.788254 v -3.772203 h -3.74555 V 7.3783729 l -0.002,-0.00198 c -10e-4,-3.538644 -2.87625,-6.40767794 -6.42479,-6.40767794 -3.547877,0 -6.425889,2.86947454 -6.425889,6.40966104 0,0.1617288 0.01413,0.3194915 0.02584,0.4776949 -0.125227,-0.00441 -0.24427,-0.014983 -0.374356,-0.014983 -3.708442,0 -6.571877,2.6367961 -6.571877,5.7515081 0,2.453695 1.652024,4.50417 4.809202,5.201102 l 2.644786,0.586102 c 1.431165,0.292389 2.092417,1.025237 2.092417,1.977542 0,1.099271 -0.917448,2.052237 -2.679681,2.052237 -2.277939,0 -3.488246,-1.428457 -3.636221,-3.040678 l -3.708442,1.026119 c 0.220417,2.014559 2.203289,5.384644 7.379779,5.384644 4.55389,0 6.756737,-3.004322 6.756737,-5.715153 0,-2.637017 -1.761571,-4.687491 -5.140491,-5.420118 l -2.716786,-0.549966 c -1.102085,-0.22056 -1.798674,-0.91639 -1.798674,-1.868915 0,-1.099272 1.06454,-2.050695 2.569251,-2.050695 0.991657,0 1.701718,0.286661 2.206381,0.693186 0.02187,0.02137 0.0625,0.04847 0.0625,0.04847 v -8.82e-4 l 2.09752,-2.0302012 C 95.026748,9.5092712 94.717767,9.0452373 94.533129,8.5208305 94.409006,8.1634407 94.338994,7.7793898 94.338994,7.3783729 c 0,-1.921356 1.561251,-3.4791526 3.488466,-3.4791526 1.927436,0 3.48802,1.5577966 3.48802,3.4791526 0,1.0552034 -0.47219,1.9989152 -1.2156,2.6376781 -0.555463,0.476152 -1.264199,0.776915 -2.041622,0.828034 v 2.944169 h 1.973592 v 7.350509 c 0,3.333067 2.05664,5.311491 5.36224,5.311491 1.54137,0 2.34839,-0.293712 2.60591,-0.403 v -3.517271 c -0.18331,0.03746 -0.88211,0.146746 -1.46871,0.146746 -1.57848,0 -2.27684,-0.660136 -2.27684,-2.234458 V 13.788254 H 108"
               id="path3814"
               inkscape:connector-curvature="0" />
          </g>
        </g>
      </g>
    </g>
  </g>
</svg>
